<?xml version="1.0" standalone="no"?>
<!DOCTYPE svg PUBLIC "-//W3C//DTD SVG 20010904//EN"
 "http://www.w3.org/TR/2001/REC-SVG-20010904/DTD/svg10.dtd">
<svg version="1.0" xmlns="http://www.w3.org/2000/svg"
 width="24.000000pt" height="24.000000pt" viewBox="0 0 24.000000 24.000000"
 preserveAspectRatio="xMidYMid meet">

<g transform="translate(0.000000,24.000000) scale(0.100000,-0.100000)"
fill="currentColor" stroke="currentColor">
<path d="M90 205 c-15 -18 -10 -45 13 -59 34 -22 73 27 47 59 -16 19 -44 19
-60 0z"/>
<path d="M27 173 c-13 -12 -7 -41 10 -47 9 -4 23 -1 30 7 8 7 11 21 7 30 -6
17 -35 23 -47 10z"/>
<path d="M166 164 c-4 -10 -1 -24 7 -31 19 -19 49 -5 45 21 -4 27 -43 34 -52
10z"/>
<path d="M70 110 c-6 -12 -10 -35 -8 -53 3 -32 3 -32 58 -32 55 0 55 0 58 32
5 51 -12 73 -58 73 -29 0 -42 -5 -50 -20z"/>
<path d="M11 96 c-20 -24 -10 -70 17 -74 20 -3 22 1 22 42 0 48 -16 60 -39 32z"/>
<path d="M190 64 c0 -41 2 -45 23 -42 40 6 32 88 -9 88 -10 0 -14 -14 -14 -46z"/>
</g>
</svg>
